<svg xmlns="http://www.w3.org/2000/svg" viewBox="0 0 785.66 187.27" xmlns:v="https://vecta.io/nano"><path d="M692.91 150.22l73.44.21a15.58 15.58 0 0 1 5.45.67l-17.84 1.29-113.59 6.3-130 7.64-95.15 5.24-129 7.56-97.14 5.42c-16.27.92-32.55 2.91-48.8 2.71C94.69 186.7 51 177 9.77 157.08c-3.44-1.66-7.32-3.07-9.46-6.72A5.49 5.49 0 0 1 4.42 149c9.24-.23 18.49-.15 27.74-.08 1.64 0 3.32.11 4.65 1.33h68.53a5.62 5.62 0 0 1 3.69-1.29c6.32-.22 12.63 0 19 0a5.19 5.19 0 0 1 3.68 1.28h60.8a5.21 5.21 0 0 1 3.64-1.29c6.4-.22 12.81 0 19.22 0a5.05 5.05 0 0 1 3.63 1.29h27.71a8.11 8.11 0 0 1 5.18-1.4l68.59.1c4.85-.15 9.71-.16 14.57 0l70.3-.13a9.68 9.68 0 0 1 5.72 1.42h29c6-2.72 12.32-.92 18.49-1.34 2.25-.16 4.65-.28 6.61 1.34H498c1.66-1.45 3.7-1.24 5.68-1.28 10.6-.19 21.2-.16 31.8 0 5.42-.15 10.85-.18 16.27 0 6.28-.28 12.55-.12 18.82-.08 1.8 0 3.67 0 5.15 1.33h2.38a114.84 114.84 0 0 1 39.23 0h7.76c2.52-1.74 5.45-1.36 8.23-1.37q26.68-.12 53.38 0c2.17.01 4.41-.19 6.21 1.39z" fill="#f48120"/><path d="M411 150.24h-76.27c-2-3.31-.12-4.57 2.84-5 4.28-.61 8.63-.85 12.81-2 6.43-1.76 7.94-4.2 6.24-10.59l-12.56-46.23c-.38-1.41-.6-3.24-2.27-3.6s-2.47 1.43-3.2 2.66l-22 36.28a38.89 38.89 0 0 0-3.51 8.79c-2 7.12-1.08 9.59 5.24 13.74 2.17 1.42 4.37 2.77 2.68 5.91h-74.38c-.55-3.65.51-5.24 4.69-5 10 .54 17.08-3.6 22-12.94L334.6 18.6c1.3-2.4 2.41-4.8 1.82-7.58-.75-3.6-2.5-6.14-6.73-5.9-2 .12-4 0-6 0s-2-1.25-2-2.68.31-2.25 1.93-2.21h3l67.45.06c1.73 0 4.66-1.51 4.68 2.41s-3 2.21-4.73 2.71a27.8 27.8 0 0 1-5.43.64c-8 .67-13 4.76-16.77 12-8.44 16-17.77 31.58-26.73 47.34-1.06 1.86-2 3.77-3.1 5.71 2.47 1.48 4.26.3 6-.93l77.56-53.69c1.82-1.26 3.85-2.68 3.57-5-.32-2.64-2.87-3.46-5.1-4.16a33 33 0 0 0-6.28-1.51c-2.2-.23-2.1-1.52-2.17-3.09-.1-2.1 1-2.46 2.75-2.45q30 0 60 0c1.43 0 2.6.11 2.67 2.05s-.9 2.12-2.42 2.32c-4.28.56-8.54 1.26-12.8 2a56.45 56.45 0 0 0-24.19 9.83L383.8 56.59c-2.86 2-3.75 3.76-2.72 7.23l19.68 68c1.52 5.22 2.82 10.72 8.79 13.12 2.53.99 1.08 3.48 1.45 5.3zm164.76-.02h-23.87c-2.64-1.6-2.75-4.44-3.25-7-1.68-8.66-3.7-17.24-5.44-25.88-.29-1.43-.36-3.41-2.11-3.6s-2.15 1.81-2.6 3.16c-2.43 7.26-5.6 14.25-7.85 21.57-1.56 5.07-1.13 5.82 3.81 7.77 2 .79 4.16 1.45 1.48 4H498a2.11 2.11 0 0 1 2.35-2.5c6.9-.1 9.76-4.85 11.82-10.4q8.32-22.41 16.53-44.85c1.37-3.74 2.81-7.46 4-11.26 1.86-6 1-7.37-5-8.68-.74-.17-1.73.14-2-1.15.53-1.73 2.1-1.16 3.28-1.16l35.45.19c10.75.28 16.56 4.22 18.64 11.83s-2.1 17.22-9.86 22.24a32.68 32.68 0 0 1-9.57 4.14c-2.5.65-3.59 1.7-2.92 4.5l5.78 25.24c1.08 4.71 2.54 9.07 8.57 9.39 2.17.09 1.26 1.42.69 2.45zm-538.95 0l-36.5.14c-1.17-2.92 1.23-2.66 2.66-2.67 5.78 0 8.61-3.48 10.4-8.42l19.39-53.31c3.89-10.79 3.81-10.82-6-14.43.5-1.91 2.09-1.31 3.27-1.31l37.94.19c8.85.15 14.67 4 16.57 10.28 2 6.58-1.39 14.77-8.07 19.49a31.69 31.69 0 0 1-8.47 4.14c-2.84.93-5.73 1.69-9.35 2.74 2.85 1.31 5.23 2.29 7.51 3.48 8.91 4.6 12 13.14 7.85 22.29-5.2 11.5-15 15.8-26.86 16.67-3.43.26-6.94-.29-10.34.72zm94.85 0h-26.32c-11.07-6.21-15.74-17-13.46-31 3.73-22.94 24.71-45 47.51-50 23.53-5.15 39.82 11.64 32.85 34.77-6.41 21.28-19.31 37.61-40.58 46.23zm87.34 0h-26.54c-10.77-6.31-15.36-16.29-13.61-29.61 3-22.64 24-45.82 46.46-51.17 24.88-5.93 41.55 11.43 33.76 35.81-6.63 20.75-19.47 36.47-40.07 44.97zm473.91 0h-67.78c0-2 1.13-2.51 2.89-2.55 6.08-.13 9.25-4 11.19-9.14l15.49-41.57c1.91-5.14 4-10.23 5.66-15.45 2.08-6.52 1.18-7.76-5.59-9-.63-.11-1.33-.09-1.58-.94.86-2.08 2.77-1.35 4.31-1.35l55.48-.08c3.43 0 4.52.66 3.1 4.19-2.11 5.23-3.21 10.89-6 16-2-1.07-1.4-2.37-1.49-3.43-.49-5.6-3.73-9.69-9.12-11.19-5.54-1.55-11.24-1-16.89-1.12a2.47 2.47 0 0 0-2.6 1.83l-10.49 28.78c6.12.59 11.66.21 17-1.91s8-7 11.3-11.26l1.31.91-11.62 31.68c-1.1-1.31-1.49-1.58-1.46-1.77.72-4 1.65-8.11-2.59-10.79-4.63-2.92-9.89-2.4-15-2.13-1.29.07-1.43 1.65-1.82 2.73l-9.18 25.32c-1.81 5.17-.47 7.13 5.1 7.31 13.52.43 25-4.4 34.79-13.64 1.43-1.36 2.42-3.65 5.91-3.2l-10.32 21.77zm-227.76 0h-25.1c-14.18-5.55-14.73-16.72-10.9-27.26l14.06-38.39c.46-1.24 1-2.48 1.33-3.75 1.5-5.55.43-7.19-5.26-8.24-.79-.15-1.57-.36-2.34-.58-.12 0-.18-.25-.77-1.09h40c.06 1.19-.79 1.52-1.91 1.54-6.17.11-9.86 3.62-11.88 9L446 126.4c-5.35 15.81 5.29 20.77 17.76 18.64 6.6-1.13 11.39-5.17 15-10.67 3.9-5.89 6.15-12.51 8.58-19l10.59-29c3.76-10.3 3-11.92-7.15-15.34h26.82c-.05.35-.06.92-.15.93-8.58 1.32-12.17 7.4-14.93 14.8-5.34 14.31-10 28.91-16.23 42.86-4.29 9.57-11.04 16.83-21.14 20.6zm152.22 0h-39.24c0-2 1.13-2.54 2.88-2.57 5.85-.13 9-3.75 10.88-8.75l14.74-39.66 6.11-16.85c2.46-7.22 1.53-8.66-6-9.9-.62-.1-1.33 0-1.73-1.57h39.09c0 .72-.37 1.4-1.08 1.4-7.59 0-10.62 5.19-12.83 11.24q-10 27.38-19.93 54.77c-2.39 6.64-1.72 7.75 5 9.19 1.58.34 3.11.48 2.11 2.7zm135.42-60.67A32.09 32.09 0 0 1 720.4 57.3a32.42 32.42 0 0 1 32.48-32.82 32.8 32.8 0 0 1 32.78 32.68 32.36 32.36 0 0 1-32.87 32.39z" fill="#096db0"/><path d="M321 150.23c.29-2.38-.32-3.84-2.94-4.83-6.55-2.5-8.39-6.52-6.76-13.41 1.36-5.74 4.1-10.87 7.1-15.85l19.71-32.38c1-1.56 1.69-3.39 4-3.17 2.58.26 2.22 2.55 2.67 4.18q6.7 24.24 13.33 48.5c1.68 6.2.1 9.07-6 10.89a47.46 47.46 0 0 1-13.77 2.05c-3.27 0-4.12 1.18-3.65 4z" fill="#fefefe"/><path d="M535.93 150.22c1.7-2.19.06-2.31-1.55-2.67-6.56-1.48-7.34-2.72-5.08-9.24 2.82-8.15 5.9-16.2 8.88-24.29.58-1.57 1.09-3.09 3.36-2.89s2 1.85 2.28 3.23l6.79 31.59c.32 1.45.85 2.85 1.28 4.27zm4.69-43.12l11.22-30.29c.73-2 2.17-2.22 3.93-2.17 5.61.15 9.46 4.14 9.62 10 .38 13.66-10.62 23.82-24.77 22.46zM33.71 145.33c-5.58 0-5.62 0-3.72-5.26l9.74-27.15c1-2.88 2.53-3.42 5.15-3.19 10.56.94 14.48 6.48 11.93 17-2.92 12.16-10.81 18.52-23.1 18.6z" fill="#fdfefe"/><path d="M42.85 104.9l10.32-28.48c1-2.74 7.28-2.81 10.48-.23a8.46 8.46 0 0 1 3.18 6.48c.72 12.82-10.4 23.33-23.98 22.23z" fill="#fdfdfe"/><path d="M109.46 133.75c2.81-18.55 7.83-36.32 19.6-51.47 4-5.1 8.85-9 15.84-9.13 5.6-.08 8.67 2.24 10 7.7 1.49 6 .23 11.93-1.22 17.71-4 15.94-9.58 31.14-21.6 43.06a19.53 19.53 0 0 1-3.88 3.09c-4.21 2.42-8.72 3.7-13.26 1.18s-5.49-7.18-5.48-12.14zm87.13-.11c3.12-19 8.12-37.29 20.67-52.6a21.39 21.39 0 0 1 10-7.17c9.18-2.87 15.33 1.42 15.34 11 0 12-3.89 23.16-8.5 34.08-3.51 8.34-8 16.06-14.55 22.42a20.32 20.32 0 0 1-3.42 2.88c-4.43 2.7-9.17 4.31-14.1 1.55-4.66-2.6-5.4-7.22-5.44-12.16zm537.1-57.23a26.54 26.54 0 0 1-6.19-29.7 27.57 27.57 0 0 1 27.76-17.1c11 .78 21.16 9.15 24.21 20 2.88 10.25-.45 21.62-7.85 26.77h-.77c-3 0-4.42-1.95-5.45-4.35a64.5 64.5 0 0 1-2.4-6.98c-2.15-7.29-2.13-7.3 4-11.73 2.71-2 4.6-4.42 4-8s-3.39-5.16-6.6-5.93c-5.7-1.36-11.54-.06-17.47-.9 2.42 2.16 2.14 4.72 1.44 7.29q-3.3 12.24-7.11 24.35c-1 3.28-2.79 6.08-6.78 6.31z" fill="#fefefe"/><path d="M771.62,76.41c-8.19,10.91-27.32,10.9-37.93,0l-.08.09c7.53-1.8,11.25-1.93,17-.61.64.19.18-1.14.11-.48,0,.15-.08.17-.22.16-3.63-.33-4.1-2.8-3.52-5.61a59.45,59.45,0,0,1,2.76-9.6c.59-1.5,1.1-3.43,3.25-3.2,1.9.19,2.65,1.88,3.2,3.47a85.51,85.51,0,0,1,2.67,9.11c.82,3.6,2.68,5.46,6.56,5.41a20.82,20.82,0,0,1,6.25,1.34Z" fill="#fcfcfd"/><path d="M771.71 76.49c-12.34.26-12.28.24-15.76-11.39-.76-2.53-.33-7-3.14-6.94-2.35 0-2 4.66-3 7.17-.57 1.37-.67 2.93-1.26 4.28-1.44 3.32-.41 5.33 3 6.89h-17.94c4.95-1.69 6.29-5.88 7.47-10.37 1.82-6.89 3.83-13.73 5.93-20.53 1-3.28 1.42-6.12-2.93-7.65a102.9 102.9 0 0 1 20 0c4.29.52 7.83 2.34 8.45 7s-1.62 8.68-6.1 10.3c-3.76 1.36-4.53 3.06-2.91 6.52a28.17 28.17 0 0 1 1.69 5.7c.93 3.95 2.43 7.4 6.5 9.02z" fill="#096db0"/><path d="M763.58 45.79a9.8 9.8 0 0 1-3 7.44c-2 2-4.75 3.54-7.14 2.12-1.84-1.09.44-3.52.69-5.38a17.56 17.56 0 0 1 1.59-5.24c.86-1.76-.16-5.29 3.69-4.57 3.25.59 4.3 2.84 4.17 5.63z" fill="#fafbfc"/></svg>