<?xml version="1.0" encoding="UTF-8"?>
<!DOCTYPE svg  PUBLIC '-//W3C//DTD SVG 1.1//EN'  'http://www.w3.org/Graphics/SVG/1.1/DTD/svg11.dtd'>
<svg clip-rule="evenodd" fill-rule="evenodd" image-rendering="optimizeQuality" shape-rendering="geometricPrecision" text-rendering="geometricPrecision" version="1.1" viewBox="0 0 598 329" xmlns="http://www.w3.org/2000/svg">
<path d="m-0.5-0.5h598v329h-598v-329z" fill="#071ab0"/>
<path d="m228.5 93.5c-9.742-0.2552-19.408 0.4114-29 2 3.034-1.5177 6.367-2.3511 10-2.5 6.514-0.82 12.847-0.6533 19 0.5z" fill="#757dd3"/>
<path d="m418.5 93.5c8.055-1.3892 16.055-1.0558 24 1-7.983-0.6655-15.983-0.9988-24-1z" fill="#7179d2"/>
<path d="m228.5 93.5c8.665 0.9922 17.331 2.6589 26 5 0.332 11.02-1e-3 22.02-1 33-16.788-6.62-33.788-7.454-51-2.5-11.795 7.499-16.795 18.333-15 32.5-0.667-2-1.333-4-2-6-0.839-5.168-3.339-6.168-7.5-3-0.379 7.489-1.546 14.823-3.5 22-0.667-9.667-1.333-19.333-2-29 0.455-5.317-1.878-7.817-7-7.5-3.566 3.743-5.233 8.243-5 13.5-1.385 2.383-3.385 4.05-6 5-0.473-4.138-2.807-6.138-7-6 2.379-23.221 14.046-40.055 35-50.5 5.464-2.2827 11.131-3.7827 17-4.5 9.592-1.5886 19.258-2.2552 29-2z" fill="#fafafc"/>
<path d="m418.5 93.5c8.017 0.0012 16.017 0.3345 24 1 7 1.0737 14 2.0737 21 3v31h-5c-2.361-0.174-4.694-0.507-7-1-4.951-2.273-10.284-3.273-16-3-5.676-0.166-11.343 1e-3 -17 0.5-6.667 3.667-6.667 7.333 0 11 7.333 1.667 14.667 3.333 22 5 24.246 6.992 33.746 22.825 28.5 47.5-4.01 12.676-12.176 21.51-24.5 26.5-4.216 1.684-8.549 2.851-13 3.5-14.018 0.176-28.018-0.157-42-1-4.243-0.769-8.409-1.769-12.5-3-0.832-11.015-0.666-22.015 0.5-33 15.893 5.562 32.227 7.395 49 5.5 2.564-1.062 4.231-2.896 5-5.5-0.029-1.529-0.696-2.696-2-3.5-10.005-2.667-20.005-5.334-30-8-19.779-8.718-27.612-23.885-23.5-45.5 7.042-19.951 21.209-30.284 42.5-31z" fill="#fcfcfe"/>
<path d="m319.5 95.5v90c13.823 0.996 27.823 1.329 42 1v30h-81v-121h39z" fill="#fefefe"/>
<path d="m319.5 95.5c0.998 29.495 1.331 59.162 1 89 14.177-0.329 28.177 4e-3 42 1h-43v-90z" fill="#2a3bbc"/>
<path d="m463.5 97.5c0.994 10.487 1.328 21.154 1 32-2.235 0.295-4.235-0.039-6-1h5v-31z" fill="#bbc0ea"/>
<path d="m109.5 103.5c-2.892 3.832-4.726 8.165-5.5 13-2.153 10.919-3.653 21.919-4.5 33-1.7659 3.785-3.2659 7.785-4.5 12-0.6667-0.667-1.3333-1.333-2-2-1.4651-9.468-2.9651-18.801-4.5-28-0.5025-3.169-2.1691-5.502-5-7 3.096 0.435 6.096 0.935 9 1.5 2.2396-5.11 4.4063-10.277 6.5-15.5 2.614-3.801 6.114-6.134 10.5-7z" fill="#0b19a2"/>
<path d="m120.5 108.5c-1.13 32.035 1.704 63.702 8.5 95 1.122 4.451 3.122 8.451 6 12 0.494 1.634 0.66 3.301 0.5 5-0.901 0.79-1.568 1.79-2 3-2.238 1.037-4.571 1.203-7 0.5-3.383-3.269-5.883-7.103-7.5-11.5-1.209-5.048-2.542-10.048-4-15-1.432-12.988-2.599-25.988-3.5-39 0.166-9.672 0-19.339-0.5-29-1.759 9.258-2.926 18.592-3.5 28-0.691 17.335-1.524 34.668-2.5 52-1.576 6.941-5.7428 9.774-12.5 8.5-5.8319-7.485-9.3319-15.985-10.5-25.5-1.5413-11.954-2.5413-23.954-3-36-1.3205 17.305-1.8205 34.639-1.5 52 0.8061 16.024 1.6394 32.024 2.5 48-1.8686 5.043-4.8686 6.043-9 3-4.2291-23.471-5.5624-47.137-4-71 0.7617-15.09 2.2617-30.09 4.5-45 1.1783-4.38 2.5117-8.713 4-13 0.6636-4.663 3.3303-6.663 8-6 2.8309 1.498 4.4975 3.831 5 7-0.2776 21.233 1.7224 42.233 6 63 0.3923 1.679 0.8923 3.346 1.5 5 0.4994-5.657 0.6661-11.324 0.5-17 0.4237-11.055 1.4237-22.055 3-33 0.847-11.081 2.347-22.081 4.5-33 0.774-4.835 2.608-9.168 5.5-13 5.266-1.867 8.933-0.201 11 5z" fill="#f7cb0d"/>
<path d="m120.5 108.5c2.824 2.3 4.657 5.3 5.5 9 0.883 20.362 2.217 40.695 4 61l3 3c1.198-6.458 2.864-12.791 5-19 1.049-2.118 2.549-3.784 4.5-5 0.268 1.599-0.066 2.932-1 4-2.559 3.5-4.059 7.5-4.5 12-1.331 7.964-1.665 15.964-1 24 0.23 3.79 1.563 7.124 4 10 2.854 2.098 5.521 4.431 8 7 0.667 2.333 0.667 4.667 0 7-6.313 12.605-5.98 24.938 1 37 9.865 7.405 18.865 6.405 27-3 5.377-11.092 7.21-22.759 5.5-35-0.209-1.494-0.876-2.661-2-3.5 0.228-0.399 0.562-0.565 1-0.5 1.291-0.237 2.291 0.096 3 1 1.517 10.495 0.683 21.162-2.5 32-6.846 16.504-17.846 20.171-33 11-4.973-7.178-7.306-15.178-7-24-0.419-1.172-1.085-2.172-2-3-4.739 3.809-9.906 4.643-15.5 2.5-4.741-3.702-8.907-7.869-12.5-12.5-3.211 2.873-6.711 5.373-10.5 7.5-5.0107 0.388-10.011 0.222-15-0.5-0.2308 8.858 0.1026 17.692 1 26.5-0.052 5.292-1.7186 9.959-5 14-10.342 4.38-16.509 0.88-18.5-10.5-4.9481-39.197-3.6148-78.197 4-117 1-2.667 2-5.333 3-8 1.0757-2.579 2.909-4.246 5.5-5-1.4883 4.287-2.8217 8.62-4 13-1.7197 4.057-2.8863 8.39-3.5 13-4.0879 27.197-5.4212 54.531-4 82 0.3536 8.832 1.6869 17.499 4 26 5.6077 5.732 10.274 5.065 14-2 0.3753-9.002 0.2086-18.002-0.5-27 0.1667-3.667 0.3333-7.333 0.5-11 0.3076-0.808 0.8076-1.475 1.5-2 2.8286 1.247 5.4952 2.747 8 4.5 5.5616 1.581 10.062 0.081 13.5-4.5 1.542-3.119 3.542-5.786 6-8 1.261 0.259 2.261 0.926 3 2l6 12c4.443 5.535 9.443 6.201 15 2 1.684-3.394 1.851-6.728 0.5-10 0.16-1.699-6e-3 -3.366-0.5-5-2.878-3.549-4.878-7.549-6-12-6.796-31.298-9.63-62.965-8.5-95z" fill="#0a18a2"/>
<path d="m435.5 124.5c5.716-0.273 11.049 0.727 16 3-5.537-0.587-10.87-1.587-16-3z" fill="#9c9fdf"/>
<path d="m172.5 145.5c-0.167 10.672 0 21.339 0.5 32 1.039-0.744 1.539-1.744 1.5-3 1.954-7.177 3.121-14.511 3.5-22 4.161-3.168 6.661-2.168 7.5 3 0.441 8.235-0.725 16.235-3.5 24-2.729 4.788-4.895 9.788-6.5 15 1.325 6.605 1.991 13.272 2 20 1.352 11.272-0.482 21.938-5.5 32-9.619 9.093-17.286 7.76-23-4-2.055-8.511-1.389-16.845 2-25 2.847-5.693 5.68-11.36 8.5-17 1.773-2.704 3.44-5.537 5-8.5-0.685-2.795-1.185-5.628-1.5-8.5-1.359 4.922-3.193 9.589-5.5 14-6.527 6.091-11.694 5.091-15.5-3-1.754-10.947-1.921-21.947-0.5-33 0.934-1.068 1.268-2.401 1-4 1.409-2.472 3.076-4.805 5-7 4.193-0.138 6.527 1.862 7 6-2.026 8.038-3.359 16.205-4 24.5 0.333 1.5 0.667 3 1 4.5 3.217-5.144 5.383-10.811 6.5-17 1.16-5.629 1.993-11.296 2.5-17-0.233-5.257 1.434-9.757 5-13.5 5.122-0.317 7.455 2.183 7 7.5z" fill="#f9cd0f"/>
<path d="m88.5 131.5c1.5349 9.199 3.0349 18.532 4.5 28 0.6667 0.667 1.3333 1.333 2 2 1.2341-4.215 2.7341-8.215 4.5-12-1.5763 10.945-2.5763 21.945-3 33-0.6667 4-1.3333 8-2 12-4.2776-20.767-6.2776-41.767-6-63z" fill="#2b2087"/>
<path d="m111.5 158.5c-1.205-1.638-2.538-1.971-4-1 0.574-9.408 1.741-18.742 3.5-28 0.5 9.661 0.666 19.328 0.5 29z" fill="#37296a"/>
<path d="m71.5 143.5c-2.2383 14.91-3.7383 29.91-4.5 45-1.5624 23.863-0.2291 47.529 4 71 4.1314 3.043 7.1314 2.043 9-3-0.8606-15.976-1.6939-31.976-2.5-48 1.101-1.3 2.4343-1.8 4-1.5 3.1982 5.187 6.3649 10.354 9.5 15.5 5.6891 3.324 10.022 1.991 13-4 1.503-6.873 3.503-13.539 6-20 1.385 1.051 2.385 2.384 3 4 2.273 7.486 4.94 14.82 8 22 3.483 5.386 7.483 6.052 12 2 0.483-0.948 0.649-1.948 0.5-3 0.432-1.21 1.099-2.21 2-3 1.351 3.272 1.184 6.606-0.5 10-5.557 4.201-10.557 3.535-15-2l-6-12c-0.739-1.074-1.739-1.741-3-2-2.458 2.214-4.458 4.881-6 8-3.438 4.581-7.9384 6.081-13.5 4.5-2.5048-1.753-5.1714-3.253-8-4.5-0.6924 0.525-1.1924 1.192-1.5 2-0.1667 3.667-0.3333 7.333-0.5 11 0.7086 8.998 0.8753 17.998 0.5 27-3.7256 7.065-8.3923 7.732-14 2-2.3131-8.501-3.6464-17.168-4-26-1.4212-27.469-0.0879-54.803 4-82 0.6137-4.61 1.7803-8.943 3.5-13z" fill="#0e1894"/>
<path d="m190.5 218.5c-2.15-1.17-4.484-2.17-7-3-1.448-2.445-2.115-5.112-2-8 1.527-11.96 4.527-23.293 9-34 2.355 5.689 6.355 9.689 12 12 2.686 1.491 5.686 2.157 9 2 2.196-5e-3 4.196-0.338 6-1 4.266-1.134 7.932-3.3 11-6.5-7.326-0.5-14.659-0.666-22-0.5v-28h61v66h-25c0.166-5.676-1e-3 -11.343-0.5-17-13.478 16.659-30.645 22.659-51.5 18z" fill="#fafafd"/>
<path d="m141.5 161.5c-1.421 11.053-1.254 22.053 0.5 33 3.806 8.091 8.973 9.091 15.5 3 0.667 1 1.333 2 2 3-2.82 5.64-5.653 11.307-8.5 17-3.389 8.155-4.055 16.489-2 25 5.714 11.76 13.381 13.093 23 4 5.018-10.062 6.852-20.728 5.5-32 1.21 0.432 2.21 1.099 3 2-0.438-0.065-0.772 0.101-1 0.5 1.124 0.839 1.791 2.006 2 3.5 1.71 12.241-0.123 23.908-5.5 35-8.135 9.405-17.135 10.405-27 3-6.98-12.062-7.313-24.395-1-37 0.667-2.333 0.667-4.667 0-7-2.479-2.569-5.146-4.902-8-7-2.437-2.876-3.77-6.21-4-10-0.665-8.036-0.331-16.036 1-24 0.441-4.5 1.941-8.5 4.5-12z" fill="#0a1795"/>
<path d="m172.5 145.5c0.667 9.667 1.333 19.333 2 29 0.039 1.256-0.461 2.256-1.5 3-0.5-10.661-0.667-21.328-0.5-32z" fill="#dcc974"/>
<path d="m185.5 155.5c0.667 2 1.333 4 2 6l3 12c-4.473 10.707-7.473 22.04-9 34-0.115 2.888 0.552 5.555 2 8 2.516 0.83 4.85 1.83 7 3-2.361-0.174-4.694-0.507-7-1-0.709-0.904-1.709-1.237-3-1-0.79-0.901-1.79-1.568-3-2-9e-3 -6.728-0.675-13.395-2-20 1.605-5.212 3.771-10.212 6.5-15 2.775-7.765 3.941-15.765 3.5-24z" fill="#d6d5d5"/>
<path d="m160.5 151.5c-0.507 5.704-1.34 11.371-2.5 17-1.117 6.189-3.283 11.856-6.5 17-0.333-1.5-0.667-3-1-4.5 0.641-8.295 1.974-16.462 4-24.5 2.615-0.95 4.615-2.617 6-5z" fill="#c6c3b8"/>
<path d="m497.5 177.5c19.555-1.28 28.388 7.72 26.5 27-5.209 12.304-14.375 16.804-27.5 13.5-13.951-8.316-16.784-19.483-8.5-33.5 3.068-2.583 6.235-4.916 9.5-7z" fill="#face0a"/>
<path d="m202.5 185.5c4.963 0.754 9.963 1.087 15 1-1.804 0.662-3.804 0.995-6 1-3.314 0.157-6.314-0.509-9-2z" fill="#7b84d5"/>
<path d="m107.5 157.5c1.462-0.971 2.795-0.638 4 1 0.901 13.012 2.068 26.012 3.5 39 1.458 4.952 2.791 9.952 4 15 1.617 4.397 4.117 8.231 7.5 11.5 2.429 0.703 4.762 0.537 7-0.5 0.149 1.052-0.017 2.052-0.5 3-4.517 4.052-8.517 3.386-12-2-3.06-7.18-5.727-14.514-8-22-0.615-1.616-1.615-2.949-3-4-2.497 6.461-4.497 13.127-6 20-2.978 5.991-7.3109 7.324-13 4-3.1351-5.146-6.3018-10.313-9.5-15.5-1.5657-0.3-2.899 0.2-4 1.5-0.3205-17.361 0.1795-34.695 1.5-52 0.4587 12.046 1.4587 24.046 3 36 1.1681 9.515 4.6681 18.015 10.5 25.5 6.7572 1.274 10.924-1.559 12.5-8.5 0.976-17.332 1.809-34.665 2.5-52z" fill="#1c1983"/>
<path d="m96.5 182.5c0.1661 5.676-6e-4 11.343-0.5 17-0.6077-1.654-1.1077-3.321-1.5-5 0.6667-4 1.3333-8 2-12z" fill="#827140"/>
<path d="m159.5 200.5c-0.667-1-1.333-2-2-3 2.307-4.411 4.141-9.078 5.5-14 0.315 2.872 0.815 5.705 1.5 8.5-1.56 2.963-3.227 5.796-5 8.5z" fill="#adaaa2"/>
<path d="m319.5 185.5h43v32c-27.505 0.331-54.838-2e-3 -82-1h81v-30c-14.177 0.329-28.177-4e-3 -42-1z" fill="#d3d7f1"/>
<path d="m389.5 217.5c13.982 0.843 27.982 1.176 42 1-5.824 0.666-11.824 1-18 1-8.232 0.224-16.232-0.442-24-2z" fill="#aaade3"/>
<path d="m165.5 207.5c1.157 8.49 1.324 17.157 0.5 26-0.505 3.017-2.005 5.351-4.5 7-1.471-0.881-2.304-2.214-2.5-4-0.83-10.341 1.336-20.008 6.5-29z" fill="#0e1684"/>
</svg>
